<svg width="120" height="120" viewBox="0 0 26 26" fill="none" xmlns="http://www.w3.org/2000/svg">
    <path
    fillRule="evenodd"
    clipRule="evenodd"
    d="M8 0C3.58172 0 0 3.58172 0 8V18C0 22.4183 3.58172 26 8 26H18C22.4183 26 26 22.4183 26 18V8C26 3.58172 22.4183 0 18 0H8ZM13 11C13 12.6569 11.6569 14 10 14C8.34315 14 7 12.6569 7 11C7 9.34315 8.34315 8 10 8C11.6569 8 13 9.34315 13 11ZM15 11C15 13.7614 12.7614 16 10 16C7.23858 16 5 13.7614 5 11C5 8.23858 7.23858 6 10 6C12.7614 6 15 8.23858 15 11Z"
    fill="#0A0D15"
    />
</svg>