<svg width="120" height="120" viewBox="0 0 120 120" fill="none" xmlns="http://www.w3.org/2000/svg">
<rect width="120" height="120" rx="4" fill="white"/>
<path d="M13 29C13 20.1634 20.1634 13 29 13H91C99.8366 13 107 20.1634 107 29V90C107 98.8366 99.8366 106 91 106H29C20.1634 106 13 98.8366 13 90V29Z" fill="black"/>
<rect x="26" y="26" width="67" height="67" rx="8" fill="white"/>
<path d="M43.7145 47.7144C43.7145 45.5052 45.5053 43.7144 47.7145 43.7144H72.1348C74.3439 43.7144 76.1348 45.5052 76.1348 47.7144V72.1347C76.1348 74.3438 74.3439 76.1347 72.1348 76.1347H47.7145C45.5053 76.1347 43.7145 74.3438 43.7145 72.1347V47.7144Z" fill="black"/>
<path d="M13 111.5V86.5L39 106C39 106 36.1797 106.32 35 107.5C33.8203 108.68 33.5 111.5 33.5 111.5H13Z" fill="black"/>
</svg>
